<svg xmlns="http://www.w3.org/2000/svg" width="617.72" height="301.413" version="1.2" viewBox="0 0 463.29 226.06"><metadata/><g><path fill="#00783a" d="m6.0469 47.91h35.816c3.2578 0 6.0469-2.7891 6.0469-6.0469v-35.816c0-3.2578-2.7891-6.0469-6.0469-6.0469h-35.816c-3.2539 0-6.0469 2.7891-6.0469 6.0469v35.816c0 3.7227 2.793 6.0469 6.0469 6.0469"/><path fill="#00ae4f" d="m392.12 226.06h65.121c3.2578 0 6.0469-2.7891 6.0469-6.0469v-35.816c0-3.2539-2.7891-6.0469-6.0469-6.0469h-65.121c-3.2539 0-6.0469 2.793-6.0469 6.0469v35.816c-0.46485 3.7227 2.793 6.0469 6.0469 6.0469"/><path fill="#00783a" d="m367.93 226.06h-273.51c-3.2578 0-6.0469-2.7891-6.0469-6.0469v-35.816c0-3.2539 2.7891-6.0469 6.0469-6.0469h273.51c3.2578 0 6.0469 2.793 6.0469 6.0469v35.816c0 3.7227-2.7891 6.0469-6.0469 6.0469"/></g><g fill="#1e5135"><path d="m6.0469 226.06h65.121c3.2578 0 6.0469-2.7891 6.0469-6.0469v-35.816c0-3.2539-2.7891-6.0469-6.0469-6.0469h-65.121c-3.2539 0-6.0469 2.793-6.0469 6.0469v35.816c0 3.7227 2.793 6.0469 6.0469 6.0469"/><path d="m6.0469 107.45h59.539c3.2578 0 6.0469-2.7891 6.0469-6.0469v-35.816c0-3.2578-2.7891-6.0469-6.0469-6.0469h-59.539c-3.2539 0-6.0469 2.7891-6.0469 6.0469v35.816c0 3.2578 2.793 6.0469 6.0469 6.0469"/><path d="m385.61 107.45h71.168c3.2578 0 6.0469-2.7891 6.0469-6.0469v-35.816c0-3.2578-2.7891-6.0469-6.0469-6.0469h-71.168c-3.2539 0-6.0469 2.7891-6.0469 6.0469v35.816c0.92968 3.2578 3.2578 6.0469 6.0469 6.0469"/></g><g fill="#00ae4f"><path d="m65.121 47.91h35.816c3.2578 0 6.0469-2.7891 6.0469-6.0469v-35.816c0-3.2578-2.7891-6.0469-6.0469-6.0469h-35.816c-3.2539 0-6.0469 2.7891-6.0469 6.0469v35.816c0.46484 3.7227 2.793 6.0469 6.0469 6.0469"/><path d="m124.66 47.91h35.816c3.2578 0 6.0469-2.7891 6.0469-6.0469v-35.816c0-3.2578-2.7891-6.0469-6.0469-6.0469h-35.816c-3.2539 0-6.0469 2.7891-6.0469 6.0469v35.816c0 3.7227 2.793 6.0469 6.0469 6.0469"/><path d="m184.2 47.91h35.816c3.2578 0 6.0469-2.7891 6.0469-6.0469v-35.816c0-3.2578-2.7891-6.0469-6.0469-6.0469h-35.816c-3.2539 0-6.0469 2.7891-6.0469 6.0469v35.816c0 3.7227 2.3281 6.0469 6.0469 6.0469"/></g><g><path fill="#1e5135" d="m243.27 47.91h35.816c3.2578 0 6.0469-2.7891 6.0469-6.0469v-35.816c0-3.2578-2.7891-6.0469-6.0469-6.0469h-35.816c-3.2539 0-6.0469 2.7891-6.0469 6.0469v35.816c0.46484 3.7227 2.793 6.0469 6.0469 6.0469"/><path fill="#00ae4f" d="m302.81 47.91h35.816c3.2578 0 6.0469-2.7891 6.0469-6.0469v-35.816c0-3.2578-2.7891-6.0469-6.0469-6.0469h-35.816c-3.2539 0-6.0469 2.7891-6.0469 6.0469v35.816c0 3.7227 2.3281 6.0469 6.0469 6.0469"/><path fill="#00ae4f" d="m361.89 47.91h35.816c3.2578 0 6.0469-2.7891 6.0469-6.0469v-35.816c0-3.2578-2.7891-6.0469-6.0469-6.0469h-35.816c-3.2539 0-6.0469 2.7891-6.0469 6.0469v35.816c0.46484 3.7227 2.793 6.0469 6.0469 6.0469"/><path fill="#00783a" d="m421.43 47.91h35.816c3.2578 0 6.0469-2.7891 6.0469-6.0469v-35.816c0-3.2578-2.7891-6.0469-6.0469-6.0469h-35.816c-3.2539 0-6.0469 2.7891-6.0469 6.0469v35.816c0 3.7227 2.793 6.0469 6.0469 6.0469"/><path fill="#00ae4f" d="m88.844 107.45h35.816c3.2578 0 6.0469-2.7891 6.0469-6.0469v-35.816c0-3.2578-2.7891-6.0469-6.0469-6.0469h-35.816c-3.2539 0-6.0469 2.7891-6.0469 6.0469v35.816c0 3.2578 2.3242 6.0469 6.0469 6.0469"/><path fill="#1e5135" d="m147.92 107.45h35.816c3.2578 0 6.0469-2.7891 6.0469-6.0469v-35.816c0-3.2578-2.7891-6.0469-6.0469-6.0469h-35.816c-3.2539 0-6.0469 2.7891-6.0469 6.0469v35.816c0.46484 3.2578 2.793 6.0469 6.0469 6.0469"/></g><g fill="#00ae4f"><path d="m207.46 107.45h35.816c3.2578 0 6.0469-2.7891 6.0469-6.0469v-35.816c0-3.2578-2.7891-6.0469-6.0469-6.0469h-35.816c-3.2539 0-6.0469 2.7891-6.0469 6.0469v35.816c0 3.2578 3.2578 6.0469 6.0469 6.0469"/><path d="m267 107.45h35.816c3.2578 0 6.0469-2.7891 6.0469-6.0469v-35.816c0-3.2578-2.7891-6.0469-6.0469-6.0469h-35.816c-3.2539 0-6.0469 2.7891-6.0469 6.0469v35.816c0 3.2578 3.2578 6.0469 6.0469 6.0469"/><path d="m326.07 107.45h35.816c3.2578 0 6.0469-2.7891 6.0469-6.0469v-35.816c0-3.2578-2.7891-6.0469-6.0469-6.0469h-35.816c-3.2539 0-6.0469 2.7891-6.0469 6.0469v35.816c0.46485 3.2578 2.793 6.0469 6.0469 6.0469"/><path d="m6.0469 166.99h35.816c3.2578 0 6.0469-2.7891 6.0469-6.0469v-35.816c0-3.2539-2.7891-6.0469-6.0469-6.0469h-35.816c-3.2539 0-6.0469 2.793-6.0469 6.0469v35.816c0 3.2578 2.793 6.0469 6.0469 6.0469"/></g><g><path fill="#00783a" d="m65.121 166.99h35.816c3.2578 0 6.0469-2.7891 6.0469-6.0469v-35.816c0-3.2539-2.7891-6.0469-6.0469-6.0469h-35.816c-3.2539 0-6.0469 2.793-6.0469 6.0469v35.816c0.46484 3.2578 2.793 6.0469 6.0469 6.0469"/><path fill="#00ae4f" d="m124.66 166.99h35.816c3.2578 0 6.0469-2.7891 6.0469-6.0469v-35.816c0-3.2539-2.7891-6.0469-6.0469-6.0469h-35.816c-3.2539 0-6.0469 2.793-6.0469 6.0469v35.816c0 3.2578 2.793 6.0469 6.0469 6.0469"/><path fill="#00783a" d="m184.2 166.99h35.816c3.2578 0 6.0469-2.7891 6.0469-6.0469v-35.816c0-3.2539-2.7891-6.0469-6.0469-6.0469h-35.816c-3.2539 0-6.0469 2.793-6.0469 6.0469v35.816c0 3.2578 2.3281 6.0469 6.0469 6.0469"/><path fill="#00ae4f" d="m243.27 166.99h35.816c3.2578 0 6.0469-2.7891 6.0469-6.0469v-35.816c0-3.2539-2.7891-6.0469-6.0469-6.0469h-35.816c-3.2539 0-6.0469 2.793-6.0469 6.0469v35.816c0.46484 3.2578 2.793 6.0469 6.0469 6.0469"/><path fill="#00783a" d="m302.81 166.99h35.816c3.2578 0 6.0469-2.7891 6.0469-6.0469v-35.816c0-3.2539-2.7891-6.0469-6.0469-6.0469h-35.816c-3.2539 0-6.0469 2.793-6.0469 6.0469v35.816c0 3.2578 2.3281 6.0469 6.0469 6.0469"/><path fill="#00ae4f" d="m361.89 166.99h35.816c3.2578 0 6.0469-2.7891 6.0469-6.0469v-35.816c0-3.2539-2.7891-6.0469-6.0469-6.0469h-35.816c-3.2539 0-6.0469 2.793-6.0469 6.0469v35.816c0.46484 3.2578 2.793 6.0469 6.0469 6.0469"/><path fill="#00ae4f" d="m421.43 166.99h35.816c3.2578 0 6.0469-2.7891 6.0469-6.0469v-35.816c0-3.2539-2.7891-6.0469-6.0469-6.0469h-35.816c-3.2539 0-6.0469 2.793-6.0469 6.0469v35.816c0 3.2578 2.793 6.0469 6.0469 6.0469"/></g></svg>